<?xml version="1.0" encoding="iso-8859-1"?>
<!-- Generator: Adobe Illustrator 18.1.1, SVG Export Plug-In . SVG Version: 6.00 Build 0)  -->
<svg version="1.1" id="Capa_1" xmlns="http://www.w3.org/2000/svg" xmlns:xlink="http://www.w3.org/1999/xlink" x="0px" y="0px"
	 viewBox="0 0 42.487 42.487" style="enable-background:new 0 0 42.487 42.487;" xml:space="preserve">
<g>
	<g>
		<path style="fill:#030104;" d="M28.945,13.094c-0.752,0.41-1.49,1.371-1.649,2.145l-0.289,1.403c0,0-0.203,1.127-0.454,2.516
			c-0.251,1.39-0.915,3.163-1.484,3.96c-0.57,0.799-1.642,1.869-2.394,2.394s-1.529,0.616-1.734,0.206s-0.538-0.65-0.743-0.536
			s-0.704,0.944-1.114,1.856s-1.001,1.891-1.32,2.188c-0.319,0.296-1.224,0.536-2.021,0.536c-0.797,0-2.423,0.239-3.63,0.536
			c-1.208,0.296-2.907,0.961-3.795,1.484l-1.609,0.949c0,0-0.259,0.148-0.578,0.33c-0.319,0.182-0.208,0.57,0.248,0.866
			s1.139,0.647,1.526,0.784s1.976-0.344,3.548-1.073s3.354-1.265,3.981-1.196c0.625,0.07,1.216,0.846,1.319,1.734
			s0.703,1.369,1.341,1.072s1.562-1.055,2.063-1.692s1.85-1.377,3.012-1.649c1.162-0.273,2.621-1.031,3.259-1.693
			c0.638-0.66,1.414-0.975,1.733-0.7c0.318,0.272,0.43,1.03,0.248,1.69c-0.183,0.662,0.408,0.551,1.319-0.246
			s1.539-3.181,1.403-5.322c-0.137-2.143,0.011-4.875,0.33-6.106c0.318-1.23,0.189-3.336-0.289-4.703
			C30.695,13.461,29.697,12.684,28.945,13.094z"/>
		<path style="fill:#030104;" d="M39.257,4.269c-0.479-0.547-2.289-1.489-4.043-2.104C33.46,1.55,31.631,0.719,31.13,0.307
			c-0.501-0.41-1.352-0.41-1.898,0s-0.713,1.851-0.371,3.218c0.342,1.367,0.047,2.919-0.66,3.465
			c-0.705,0.547-1.278,1.803-1.278,2.806s0.739,1.815,1.649,1.815c0.912,0,1.65-0.591,1.65-1.32s0.591-0.932,1.32-0.454
			c0.729,0.478,1.818,0.737,2.434,0.578c0.615-0.16,1.465-1.028,1.898-1.939s1.559-2.001,2.516-2.434S39.736,4.816,39.257,4.269z"/>
		<path style="fill:#030104;" d="M6.502,35.045c-0.524-0.41-1.669-0.41-2.558,0s-1.184,1.352-0.66,2.104s0.635,1.915,0.247,2.6
			c-0.388,0.683-0.388,1.605,0,2.062c0.387,0.456,0.997,0.751,1.362,0.66s1.159-1.218,1.774-2.517
			c0.615-1.298,1.04-2.758,0.949-3.259S7.026,35.456,6.502,35.045z"/>
		<path style="fill:#030104;" d="M12.318,34.425l-1.733,0.949l-0.247,0.412c0,0-0.166,0.295-0.371,0.66s-0.205,1.066,0,1.568
			c0.205,0.501,0.852,0.206,1.444-0.66s1.442-1.4,1.898-1.195c0.456,0.204,1.028,0.315,1.279,0.246
			c0.251-0.068,0.232-0.752-0.041-1.527C14.272,34.104,13.275,33.902,12.318,34.425z"/>
	</g>
</g>
<g>
</g>
<g>
</g>
<g>
</g>
<g>
</g>
<g>
</g>
<g>
</g>
<g>
</g>
<g>
</g>
<g>
</g>
<g>
</g>
<g>
</g>
<g>
</g>
<g>
</g>
<g>
</g>
<g>
</g>
</svg>
